# xmcd
#
# Track frame offsets: 
#        150
#        18895
#        35175
#        65585
#        81252
#        97600
#        115192
#        132842
#        155197
#        173115
#        196495
#        217347
#        254707
#        267900
#        281830
#
# Disc length: 3956 seconds
#
# Revision: 1
# Processed by: cddbd v1.5.2PL0 Copyright (c) Steve Scherf et al.
# Submitted via: ExactAudioCopyFreeDBPlugin 1.0
#
DISCID=e50f720f
DTITLE=Blues Mafia - Recycling The Blues
DYEAR=1994
DGENRE=Blues
TTITLE0=Busy Man
TTITLE1=Mellow Down Easy
TTITLE2=That's Alright
TTITLE3=Kiddio
TTITLE4=Carry On
TTITLE5=Morning Dew
TTITLE6=Poison Ivy
TTITLE7=I Guess It Is The Blues
TTITLE8=Eight To Hold
TTITLE9=Jealousy
TTITLE10=You're The Best I've Ever Had
TTITLE11=Hungry Man Blues
TTITLE12=Mr. Blues Jr.
TTITLE13=Mother-In-Law
TTITLE14=Don't Let The Music Die
EXTD=
EXTT0=
EXTT1=
EXTT2=
EXTT3=
EXTT4=
EXTT5=
EXTT6=
EXTT7=
EXTT8=
EXTT9=
EXTT10=
EXTT11=
EXTT12=
EXTT13=
EXTT14=
PLAYORDER=
